<svg viewBox="0 0 1920 539" xmlns="http://www.w3.org/2000/svg"><path d="M0 435.32c24.11 22.819 52.092 40.452 83.945 52.901 20.555 8.033 40.729 14.696 56.223 19.325 8.856 2.646 16.183 4.628 21.177 5.823 13.733 3.284 28.067 6.228 49.986 7.313 67.674 3.35 167.91-21.142 227.2-38.013 39.527-11.247 160.76-44.562 363.71-99.944l237.98-66.087 671.31-177.44c31.453-8.069 59.986-18.823 85.597-32.264 38.417-20.161 81.541-59.206 90.118-68.677 5.718-6.313 16.635-19.065 32.749-38.253v539h-1920v-103.68z" fill="#fff" fill-rule="evenodd"/></svg>