<svg width="1920" height="539" xmlns="http://www.w3.org/2000/svg"><path d="M1920 103.68c-24.11-22.818-52.092-40.452-83.945-52.9-20.555-8.034-40.729-14.696-56.223-19.326-8.855-2.646-16.182-4.628-21.177-5.822-13.733-3.285-28.067-6.229-49.986-7.314-67.675-3.35-167.913 21.142-227.203 38.014-39.527 11.247-160.765 44.562-363.713 99.944l-237.975 66.087-671.314 177.443c-31.453 8.069-59.985 18.823-85.597 32.264-38.417 20.161-81.54 59.206-90.118 68.677C27.031 507.06 16.115 519.81 0 539V0h1920v103.68z" fill="#FFF" fill-rule="evenodd"/></svg>