<svg version="1.1" id="Layer_1" xmlns="http://www.w3.org/2000/svg" x="0" y="0" viewBox="0 0 612 724.8" xml:space="preserve"><style>.st0,.st1{fill-rule:evenodd;clip-rule:evenodd;fill:#231916}.st1{fill:#f4a300}</style><path class="st0" d="M592.3 374c-1.4 88.7-75.5 160.1-166.7 160.1-46.6 0-88.7-18.7-119-48.8-.8.8-1.6 1.6-2.4 2.3C274.1 516.3 233 534 187.6 534c-15.4 0-30.3-2-44.5-5.9v5.2c14.2 3.8 29.1 5.9 44.5 5.9 46.6 0 88.7-18.7 119-48.8 30.3 30.1 72.4 48.8 119 48.8 92.1 0 166.7-72.8 166.7-162.7V374z"/><path class="st1" d="M425.6 185.7c-46.6 0-88.7 18.7-119 48.8-30.3-30.1-72.4-48.8-119-48.8-92.1 0-166.7 72.8-166.7 162.7v2.6c1.4-88.7 75.5-160.1 166.7-160.1 46.6 0 88.7 18.7 119 48.8.8-.8 1.6-1.6 2.4-2.3 30.1-28.7 71.2-46.4 116.6-46.4 15.4 0 30.3 2 44.5 5.9v-5.2c-14.2-4-29.1-6-44.5-6z"/><path class="st0" d="M189.1 448.5c-17.9 0-34.6-5.2-48.6-14.2-9-5.8-16.8-13.1-23.1-21.6-.8-1.1-1.5-2.1-2.3-3.2v-.1l-2.1-3.3v-.1c-.7-1.1-1.3-2.3-2-3.4-3.2-5.8-5.7-12-7.5-18.5-1.9-7-2.9-14.4-2.9-22.1 0-47.7 39.6-86.4 88.5-86.4 31.8 0 59.6 16.3 75.2 40.9 7.8-25.6 21.9-48.6 40.5-67.2-30.3-30.3-72.6-49.1-119.4-49.1-92.1 0-166.7 72.8-166.7 162.7 0 5.1.3 10.1.7 15.1v269.5c0 6.6 4.8 13.6 10.8 15.6l99.5 33.7c5.9 2 10.8-1.8 10.8-8.4V519.6c14.3 3.9 29.4 6 45 6 46.8 0 89.1-18.8 119.4-49.1-18.9-18.9-33.1-42.3-40.8-68.3-15.8 24.2-43.5 40.3-75 40.3z"/><path class="st1" d="M593.6 349.3V77.5c0-6.6-4.8-13.6-10.8-15.6l-99.5-33.7c-5.9-2-10.8 1.8-10.8 8.4v168.9c-14.4-3.9-29.5-6-45.2-6-92.1 0-166.7 72.8-166.7 162.7s74.6 162.7 166.7 162.7S594 452.1 594 362.2c.1-4.4-.1-8.6-.4-12.9zm-166.3 99.2c-48.9 0-88.5-38.7-88.5-86.4s39.6-86.4 88.5-86.4 88.5 38.7 88.5 86.4-39.6 86.4-88.5 86.4z"/></svg>